<svg width="23" height="18" viewBox="0 0 23 18" fill="none" xmlns="http://www.w3.org/2000/svg">
<path fill-rule="evenodd" clip-rule="evenodd" d="M22.2963 9.20443C22.2963 8.56625 22.2265 7.95262 22.0971 7.36353H11.7793V10.8449H17.6752C17.4212 11.9699 16.6494 12.9231 15.4891 13.5613V15.8194H19.0296C21.1012 14.2526 22.2963 11.9453 22.2963 9.20443Z" fill="#4285F4"/>
<path fill-rule="evenodd" clip-rule="evenodd" d="M11.7792 18C14.7371 18 17.2169 17.1941 19.0295 15.8195L15.489 13.5613C14.508 14.1013 13.2532 14.4204 11.7792 14.4204C8.92587 14.4204 6.51076 12.8372 5.64928 10.71H1.98926V13.0418C3.79188 15.9831 7.49672 18 11.7792 18Z" fill="#34A853"/>
<path fill-rule="evenodd" clip-rule="evenodd" d="M5.64947 10.7101C5.43037 10.1701 5.30588 9.59325 5.30588 9.00007C5.30588 8.40689 5.43037 7.83007 5.64947 7.29007V4.95825H1.98945C1.24749 6.17325 0.824219 7.5478 0.824219 9.00007C0.824219 10.4523 1.24749 11.8269 1.98945 13.0419L5.64947 10.7101Z" fill="#FBBC05"/>
<path fill-rule="evenodd" clip-rule="evenodd" d="M11.7792 3.57955C13.3876 3.57955 14.8317 4.03364 15.9671 4.92545L19.1092 2.34409C17.212 0.891818 14.7321 0 11.7792 0C7.49672 0 3.79188 2.01682 1.98926 4.95818L5.64928 7.29C6.51076 5.16273 8.92587 3.57955 11.7792 3.57955Z" fill="#EA4335"/>
</svg>
